<?xml version="1.0" encoding="UTF-8"?>
<!DOCTYPE svg PUBLIC "-//W3C//DTD SVG 1.1//EN" "http://www.w3.org/Graphics/SVG/1.1/DTD/svg11.dtd">
<svg xmlns="http://www.w3.org/2000/svg" version="1.1" width="500px" height="500px" style="shape-rendering:geometricPrecision; text-rendering:geometricPrecision; image-rendering:optimizeQuality; fill-rule:evenodd; clip-rule:evenodd" xmlns:xlink="http://www.w3.org/1999/xlink">
<g><path style="opacity:1" fill="#212529" d="M -0.5,-0.5 C 166.167,-0.5 332.833,-0.5 499.5,-0.5C 499.5,166.167 499.5,332.833 499.5,499.5C 422.167,499.5 344.833,499.5 267.5,499.5C 267.5,483.5 267.5,467.5 267.5,451.5C 330.948,445.127 380.948,416.127 417.5,364.5C 419.857,364.663 422.19,364.497 424.5,364C 423.207,361.948 422.207,359.781 421.5,357.5C 438.7,330.74 448.866,301.406 452,269.5C 456.513,197.72 431.347,138.887 376.5,93C 347.803,70.9258 315.47,57.0925 279.5,51.5C 274.181,40.1929 268.847,28.8596 263.5,17.5C 255.275,16.1854 247.108,16.1854 239,17.5C 233.725,29.047 228.225,40.3804 222.5,51.5C 152.858,63.6587 101.691,100.992 69,163.5C 43.1452,221.792 43.1452,280.126 69,338.5C 72.5786,345.325 76.4119,351.992 80.5,358.5C 80.1307,360.441 79.464,362.275 78.5,364C 80.4727,364.495 82.4727,364.662 84.5,364.5C 120.683,415.601 170.017,444.601 232.5,451.5C 232.5,467.5 232.5,483.5 232.5,499.5C 154.833,499.5 77.1667,499.5 -0.5,499.5C -0.5,332.833 -0.5,166.167 -0.5,-0.5 Z"/></g>
<g><path style="opacity:1" fill="#fcd501" d="M 279.5,51.5 C 281.323,56.4799 283.657,61.1465 286.5,65.5C 329.263,158.689 372.263,251.689 415.5,344.5C 417.229,348.958 419.229,353.291 421.5,357.5C 422.207,359.781 423.207,361.948 424.5,364C 422.19,364.497 419.857,364.663 417.5,364.5C 412.5,364.5 407.5,364.5 402.5,364.5C 394.804,364.831 387.138,364.497 379.5,363.5C 367.5,336.833 355.5,310.167 343.5,283.5C 318.175,282.5 292.842,282.167 267.5,282.5C 267.5,334.833 267.5,387.167 267.5,439.5C 267.5,443.5 267.5,447.5 267.5,451.5C 267.5,467.5 267.5,483.5 267.5,499.5C 255.833,499.5 244.167,499.5 232.5,499.5C 232.5,483.5 232.5,467.5 232.5,451.5C 232.5,447.5 232.5,443.5 232.5,439.5C 232.5,387.167 232.5,334.833 232.5,282.5C 208.164,282.333 183.831,282.5 159.5,283C 147.097,309.641 135.097,336.474 123.5,363.5C 115.528,364.498 107.528,364.831 99.5,364.5C 94.5,364.5 89.5,364.5 84.5,364.5C 82.4727,364.662 80.4727,364.495 78.5,364C 79.464,362.275 80.1307,360.441 80.5,358.5C 83.2895,354.584 85.2895,350.251 86.5,345.5C 130.346,252.471 173.679,159.138 216.5,65.5C 219.054,61.0591 221.054,56.3925 222.5,51.5C 228.225,40.3804 233.725,29.047 239,17.5C 247.108,16.1854 255.275,16.1854 263.5,17.5C 268.847,28.8596 274.181,40.1929 279.5,51.5 Z"/></g>
<g><path style="opacity:1" fill="#f9f9f9" d="M 222.5,51.5 C 221.054,56.3925 219.054,61.0591 216.5,65.5C 151.382,78.4404 104.882,115.107 77,175.5C 53.843,233.614 57.0096,290.281 86.5,345.5C 85.2895,350.251 83.2895,354.584 80.5,358.5C 76.4119,351.992 72.5786,345.325 69,338.5C 43.1452,280.126 43.1452,221.792 69,163.5C 101.691,100.992 152.858,63.6587 222.5,51.5 Z"/></g>
<g><path style="opacity:1" fill="#f9f9f9" d="M 279.5,51.5 C 315.47,57.0925 347.803,70.9258 376.5,93C 431.347,138.887 456.513,197.72 452,269.5C 448.866,301.406 438.7,330.74 421.5,357.5C 419.229,353.291 417.229,348.958 415.5,344.5C 445.018,289.761 448.185,233.428 425,175.5C 397.257,115.586 351.091,78.9197 286.5,65.5C 283.657,61.1465 281.323,56.4799 279.5,51.5 Z"/></g>
<g><path style="opacity:1" fill="#212529" d="M 216.5,65.5 C 173.679,159.138 130.346,252.471 86.5,345.5C 57.0096,290.281 53.843,233.614 77,175.5C 104.882,115.107 151.382,78.4404 216.5,65.5 Z"/></g>
<g><path style="opacity:1" fill="#212529" d="M 286.5,65.5 C 351.091,78.9197 397.257,115.586 425,175.5C 448.185,233.428 445.018,289.761 415.5,344.5C 372.263,251.689 329.263,158.689 286.5,65.5 Z"/></g>
<g><path style="opacity:1" fill="#212528" d="M 250.5,74.5 C 275.772,130.124 300.772,185.957 325.5,242C 276.163,242.833 226.83,242.667 177.5,241.5C 202.12,185.929 226.454,130.262 250.5,74.5 Z"/></g>
<g><path style="opacity:1" fill="#212529" d="M 232.5,439.5 C 177.275,433.398 132.942,408.398 99.5,364.5C 107.528,364.831 115.528,364.498 123.5,363.5C 135.097,336.474 147.097,309.641 159.5,283C 183.831,282.5 208.164,282.333 232.5,282.5C 232.5,334.833 232.5,387.167 232.5,439.5 Z"/></g>
<g><path style="opacity:1" fill="#212529" d="M 402.5,364.5 C 368.579,408.971 323.579,433.971 267.5,439.5C 267.5,387.167 267.5,334.833 267.5,282.5C 292.842,282.167 318.175,282.5 343.5,283.5C 355.5,310.167 367.5,336.833 379.5,363.5C 387.138,364.497 394.804,364.831 402.5,364.5 Z"/></g>
<g><path style="opacity:1" fill="#f9f9f9" d="M 84.5,364.5 C 89.5,364.5 94.5,364.5 99.5,364.5C 132.942,408.398 177.275,433.398 232.5,439.5C 232.5,443.5 232.5,447.5 232.5,451.5C 170.017,444.601 120.683,415.601 84.5,364.5 Z"/></g>
<g><path style="opacity:1" fill="#fafafa" d="M 402.5,364.5 C 407.5,364.5 412.5,364.5 417.5,364.5C 380.948,416.127 330.948,445.127 267.5,451.5C 267.5,447.5 267.5,443.5 267.5,439.5C 323.579,433.971 368.579,408.971 402.5,364.5 Z"/></g>
</svg>
